<?xml version="1.0" standalone="no"?>
<!DOCTYPE svg PUBLIC "-//W3C//DTD SVG 20010904//EN"
 "http://www.w3.org/TR/2001/REC-SVG-20010904/DTD/svg10.dtd">
<svg version="1.0" xmlns="http://www.w3.org/2000/svg"
 width="920.000000pt" height="920.000000pt" viewBox="0 0 920.000000 920.000000"
 preserveAspectRatio="xMidYMid meet">

<g transform="translate(0.000000,920.000000) scale(0.100000,-0.100000)"
fill="#000000" stroke="none">
<path d="M4540 7975 c-26 -31 13 -82 44 -56 22 18 20 48 -3 61 -25 13 -26 13
-41 -5z"/>
<path d="M3942 7764 c-25 -17 -31 -71 -10 -92 21 -21 75 -15 92 10 22 31 20
45 -9 73 -28 29 -42 31 -73 9z"/>
<path d="M4282 7718 l3 -23 280 0 280 0 3 23 3 22 -286 0 -286 0 3 -22z"/>
<path d="M2943 7293 c-10 -4 -13 -591 -13 -2888 0 -2620 1 -2883 16 -2889 9
-3 739 -6 1623 -6 1237 0 1610 3 1619 12 9 9 12 664 12 2885 0 2830 0 2872
-19 2883 -20 10 -3212 14 -3238 3z m3237 -1463 l0 -1440 -535 0 -535 0 0 -535
0 -535 535 0 535 0 0 -545 0 -545 -535 0 -535 0 0 -150 0 -151 155 2 c91 0
153 4 149 10 -3 5 -14 9 -25 9 -11 0 -17 5 -14 10 3 6 18 7 33 4 39 -10 46
-15 31 -25 -9 -5 18 -8 66 -7 73 2 77 3 50 14 -27 12 -28 13 -7 14 23 0 23 0
3 21 -13 14 -26 19 -39 14 -18 -5 -21 -2 -20 23 1 34 20 37 43 6 8 -10 15 -14
15 -7 0 6 -4 14 -9 17 -11 7 -2 46 10 46 5 0 8 -3 8 -7 -1 -5 0 -11 1 -15 5
-17 8 -29 9 -47 0 -10 8 -22 16 -25 12 -4 14 -2 6 11 -7 12 -5 21 7 30 15 10
14 11 -8 7 -14 -2 -19 -2 -12 2 6 3 12 12 12 20 0 7 6 11 13 8 8 -3 20 2 27
11 12 15 15 14 26 -7 8 -13 13 -18 14 -12 0 6 12 10 28 8 15 -2 19 -1 10 2
-10 3 -18 12 -18 19 0 10 6 12 18 8 23 -9 47 -33 32 -33 -7 0 -9 -13 -5 -37 7
-49 11 -51 25 -9 6 20 16 34 21 30 5 -3 6 -10 3 -16 -4 -6 2 -8 17 -4 23 7 23
6 4 -6 -11 -7 -24 -13 -30 -13 -9 0 -11 -8 -6 -35 2 -16 21 -12 21 5 0 8 4 15
10 15 13 0 32 -38 25 -50 -9 -14 9 -12 24 2 11 11 13 11 7 0 -6 -9 29 -12 158
-12 l166 0 0 -195 0 -195 -1615 0 -1615 0 0 195 0 195 108 2 107 2 -107 3
-108 4 0 149 0 150 535 0 535 0 0 384 c0 243 -4 387 -10 391 -6 3 -7 -1 -4 -9
5 -12 -1 -16 -22 -17 l-29 -2 28 -4 c44 -7 35 -35 -10 -31 -31 3 -37 7 -40 30
-3 23 1 27 24 31 26 4 26 4 -4 6 -30 1 -33 -2 -33 -28 0 -20 -6 -30 -20 -34
-18 -5 -20 -14 -20 -91 0 -51 -4 -86 -10 -86 -6 0 -10 37 -10 90 l0 90 -37 -1
c-21 -1 -29 -3 -18 -6 42 -9 43 -10 35 -52 -4 -22 -3 -38 1 -35 5 3 6 -2 3
-11 -5 -13 -9 -13 -23 -3 -14 11 -14 11 -4 -3 7 -9 9 -20 5 -24 -4 -5 -2 -5 4
-2 7 4 11 -7 12 -31 1 -29 -1 -33 -9 -19 -12 20 -49 23 -49 4 0 -7 -13 -23
-30 -35 -20 -15 -27 -27 -23 -40 3 -9 3 -14 -1 -11 -12 11 -16 50 -4 43 7 -5
8 -2 3 6 -6 9 -4 11 5 5 9 -5 11 -4 6 4 -6 8 -12 9 -20 2 -7 -6 -17 -7 -22 -3
-4 4 -2 -1 5 -10 14 -19 3 -24 -17 -8 -8 7 -9 7 -3 -1 5 -6 7 -17 5 -24 -3 -7
-1 -16 5 -20 7 -3 8 0 5 9 -3 9 -2 16 4 16 12 0 11 -18 -2 -39 -6 -10 -5 -12
2 -7 7 4 12 2 12 -4 0 -6 5 -8 13 -4 8 5 8 2 -2 -9 -12 -15 -10 -17 15 -17 28
0 28 0 7 -15 -21 -15 -212 -59 -220 -51 -7 7 -6 121 2 155 5 24 4 36 -6 42 -9
5 -14 26 -14 56 0 45 -1 48 -25 45 -14 -1 -31 -10 -38 -20 -12 -16 -12 -28 2
-63 5 -10 2 -16 -8 -16 -21 0 -27 20 -35 115 l-7 84 78 -4 c42 -3 75 -1 72 4
-3 4 -39 8 -80 8 l-74 0 0 126 0 127 29 -6 c15 -3 52 -9 82 -13 75 -9 53 12
-26 27 -93 16 -95 17 -97 52 l-1 32 -4 -32 c-2 -18 -9 -33 -15 -33 -6 0 -5 -7
3 -17 10 -11 15 -54 18 -140 l3 -123 -28 -1 -29 -2 28 -4 c26 -4 27 -6 27 -68
0 -41 -7 -80 -20 -110 -27 -64 -26 -85 5 -85 24 0 25 -3 25 -55 0 -51 12 -72
23 -42 3 6 6 -5 6 -25 1 -31 -3 -39 -21 -43 -13 -3 -102 -21 -198 -40 -96 -19
-185 -37 -197 -40 -19 -4 -23 -1 -23 17 0 19 -2 20 -10 8 -6 -10 -9 37 -8 140
l2 155 6 -115 c3 -63 7 -110 9 -105 5 19 0 209 -6 218 -3 6 -7 55 -9 111 -2
56 -1 95 2 88 3 -6 11 -9 17 -5 7 4 22 8 34 8 24 1 26 -17 39 -287 4 -76 10
-138 15 -138 8 0 6 113 -6 270 -1 19 -3 65 -4 103 l-1 67 -55 0 -55 0 0 165 0
165 535 0 535 0 0 535 0 535 -535 0 -535 0 0 1440 0 1440 1615 0 1615 0 0
-1440z m-532 -1517 c-10 -2 -26 -2 -35 0 -10 3 -2 5 17 5 19 0 27 -2 18 -5z
m59 1 c-3 -3 -12 -4 -19 -1 -8 3 -5 6 6 6 11 1 17 -2 13 -5z m349 -39 c20 -8
35 -17 32 -20 -5 -6 -128 35 -128 42 0 8 54 -4 96 -22z m-2659 -131 c-3 -3
-12 -4 -19 -1 -8 3 -5 6 6 6 11 1 17 -2 13 -5z m46 -1 c-7 -2 -19 -2 -25 0 -7
3 -2 5 12 5 14 0 19 -2 13 -5z m112 -3 c-3 -5 2 -10 11 -10 24 0 54 -29 54
-52 0 -11 4 -17 9 -13 5 3 19 -7 30 -21 12 -15 21 -23 21 -18 0 5 5 2 10 -6 8
-12 10 -11 10 7 0 25 46 62 59 47 19 -22 52 -84 44 -84 -4 0 -13 10 -18 23
-13 29 -64 37 -66 10 -1 -10 0 -22 1 -28 1 -5 2 -25 2 -43 0 -17 5 -35 10 -38
6 -4 8 1 4 13 -4 12 0 26 12 36 17 16 18 15 14 -18 -5 -42 -15 -50 -41 -33
-27 16 -36 5 -35 -42 1 -37 0 -39 -20 -28 -11 6 -32 18 -46 28 -73 49 -100 62
-94 45 6 -15 4 -15 -14 -4 -11 7 -19 16 -16 20 2 4 -4 6 -13 5 -10 -2 -19 -9
-20 -17 -4 -20 45 -72 62 -65 9 3 12 0 8 -10 -3 -8 1 -14 8 -14 9 0 10 -3 4
-8 -5 -4 -10 -18 -10 -31 0 -18 -6 -25 -25 -28 -14 -2 -30 -10 -37 -19 -7 -10
-13 -11 -18 -5 -3 6 -11 11 -17 11 -7 0 -6 -6 2 -15 17 -21 -5 -48 -33 -39
-13 4 -17 2 -12 -5 7 -12 -24 -45 -48 -54 -21 -8 3 -21 38 -21 44 0 55 -24 24
-49 -17 -13 -22 -27 -21 -51 3 -40 -18 -60 -55 -53 -36 7 -63 -8 -63 -34 0
-14 6 -19 18 -17 15 2 62 -33 62 -46 0 -3 -10 -7 -22 -9 -20 -4 -19 -4 5 -6
15 0 27 4 27 10 0 8 4 9 13 0 8 -6 17 -8 21 -4 4 4 23 6 44 6 l37 -1 -40 9
c-107 26 -102 24 -79 36 16 9 31 8 65 -3 24 -8 49 -21 54 -27 6 -7 31 -13 58
-12 26 0 47 -4 47 -8 0 -5 6 -5 13 0 17 10 49 15 44 6 -3 -5 12 -8 34 -8 22 0
37 4 35 10 -2 6 3 18 12 28 10 11 11 17 4 17 -7 0 -12 5 -12 10 0 6 7 10 15
10 9 0 15 9 16 23 0 20 1 21 8 3 7 -18 9 -16 19 14 23 65 21 22 -2 -48 -13
-39 -19 -69 -14 -66 15 10 58 12 52 3 -3 -5 0 -9 5 -9 6 0 11 6 12 13 0 10 2
10 6 0 2 -7 9 -13 14 -13 6 0 7 6 3 13 -6 8 -3 8 9 -2 11 -9 35 -12 72 -9 30
2 55 1 55 -3 0 -4 -39 -7 -87 -8 -438 -6 -661 -6 -675 1 -9 4 -19 4 -23 -1 -5
-9 -42 -7 -52 3 -9 9 8 26 19 20 18 -11 138 -10 135 1 -2 6 -15 10 -28 11 -13
0 -34 4 -46 8 -13 4 -35 9 -50 12 -16 3 -36 7 -45 10 -10 3 -18 1 -18 -5 0
-13 -106 -15 -114 -2 -3 5 -15 7 -26 4 -24 -6 -28 22 -5 31 9 3 22 21 30 40
21 50 36 55 109 37 46 -12 70 -24 89 -46 14 -16 28 -27 32 -24 6 7 -28 71 -36
66 -2 -1 -2 0 -1 3 2 3 9 5 15 5 7 0 12 8 12 17 0 10 5 18 10 19 25 2 33 20
24 52 -5 18 -9 33 -9 34 0 1 12 -2 28 -6 31 -9 73 1 54 13 -7 4 -12 18 -12 31
0 13 -12 33 -29 47 -26 23 -27 27 -15 49 7 13 13 43 14 66 0 36 4 43 23 48 26
6 67 3 67 -5 0 -7 58 -5 66 3 3 3 1 14 -5 25 -25 46 22 92 59 60 8 -7 6 -2 -5
11 l-20 23 25 -2 c14 -2 33 0 43 5 21 9 23 30 2 21 -8 -3 -15 -1 -15 4 0 6 4
10 8 10 12 0 9 45 -5 61 -13 16 -6 33 17 42 22 8 22 8 15 -3z m-448 -22 c-3
-8 -6 -5 -6 6 -1 11 2 17 5 13 3 -3 4 -12 1 -19z m2365 3 c-1 -7 -4 -40 -5
-74 -2 -34 -11 -79 -21 -100 -15 -31 -18 -52 -13 -114 7 -92 -18 -174 -45
-147 -3 3 1 19 9 35 12 24 13 39 4 74 -6 24 -8 57 -5 74 8 40 -2 40 -20 -1 -9
-21 -15 -26 -15 -15 -1 9 11 36 25 58 22 35 25 51 24 108 -3 90 -2 103 9 96 6
-3 16 1 23 9 15 17 34 15 30 -3z m19 -168 c-6 -13 -17 -23 -25 -23 -13 0 -13
4 0 35 7 19 15 60 15 92 l2 58 9 -69 c7 -47 6 -77 -1 -93z m-2274 131 c-3 -3
-12 -4 -19 -1 -8 3 -5 6 6 6 11 1 17 -2 13 -5z m180 0 c-3 -3 -12 -4 -19 -1
-8 3 -5 6 6 6 11 1 17 -2 13 -5z m2438 -33 c38 -4 54 -26 56 -76 1 -35 2 -37
9 -15 8 24 8 24 9 2 1 -12 -6 -25 -15 -29 -8 -3 -20 -17 -25 -30 -7 -20 -14
-24 -32 -19 -12 3 -37 6 -54 6 -40 0 -42 12 -5 27 l27 11 -30 1 c-17 1 -36 -4
-42 -10 -7 -7 -12 -3 -17 16 -8 31 -1 45 24 45 10 0 20 6 22 13 8 21 -3 37
-24 37 -17 0 -18 3 -8 14 13 16 49 25 65 16 6 -3 23 -7 40 -9z m-2715 -27 c0
-8 -4 -12 -10 -9 -5 3 -10 10 -10 16 0 5 5 9 10 9 6 0 10 -7 10 -16z m101 6
c26 -14 24 -24 -7 -45 -15 -9 -23 -11 -19 -5 6 10 1 11 -19 6 -31 -8 -46 15
-26 39 15 17 43 19 71 5z m-187 -31 l19 -31 -36 4 c-20 2 -33 0 -31 -4 6 -10
1 -10 -20 -2 -16 6 -22 45 -9 57 3 4 18 7 33 7 18 0 31 -9 44 -31z m2656 -54
c0 -21 -38 -85 -50 -85 -5 0 -12 4 -15 10 -3 6 1 7 9 4 12 -5 16 0 16 17 0 18
-3 20 -9 10 -5 -7 -21 -14 -37 -15 -16 -1 -40 -8 -53 -15 -20 -11 -26 -11 -39
3 -15 14 -14 17 3 31 11 8 30 15 43 15 20 0 27 10 23 34 -1 5 6 6 15 2 12 -5
15 -2 10 9 -3 9 -2 14 3 11 4 -3 17 3 27 13 18 17 20 17 36 -5 10 -12 18 -30
18 -39z m-2310 24 c0 -5 5 -7 11 -4 7 5 9 -5 7 -26 -3 -33 -4 -34 -42 -32 -22
2 -41 5 -43 7 -10 9 -10 42 0 54 12 15 67 16 67 1z m2577 -46 c-3 -10 -5 -4
-5 12 0 17 2 24 5 18 2 -7 2 -21 0 -30z m-2927 17 c0 -5 -4 -10 -10 -10 -5 0
-10 5 -10 10 0 6 5 10 10 10 6 0 10 -4 10 -10z m3077 -22 c-3 -8 -6 -5 -6 6
-1 11 2 17 5 13 3 -3 4 -12 1 -19z m-225 -40 c-7 -7 -12 -8 -12 -2 0 14 12 26
19 19 2 -3 -1 -11 -7 -17z m-2823 3 c8 -5 10 -14 6 -21 -6 -10 -12 -8 -23 6
-13 18 -14 18 -7 -3 7 -24 -1 -28 -24 -14 -12 8 -12 12 -2 25 15 18 29 20 50
7z m2535 -27 c8 -20 8 -21 -27 -29 -32 -8 -37 10 -9 31 23 18 29 17 36 -2z
m229 9 c-7 -2 -21 -2 -30 0 -10 3 -4 5 12 5 17 0 24 -2 18 -5z m15 -29 c-9 -9
-21 -13 -28 -9 -14 9 5 25 30 25 12 0 12 -3 -2 -16z m-2108 -16 c0 -5 -11 -19
-25 -32 -22 -21 -37 -64 -17 -52 4 2 14 1 22 -5 10 -6 11 -9 3 -9 -7 0 -13 -7
-13 -15 0 -8 7 -15 15 -15 8 0 15 5 15 12 0 9 3 9 13 -1 10 -10 6 -18 -21 -42
-34 -31 -62 -38 -62 -15 0 7 -7 19 -15 26 -8 7 -15 16 -15 21 0 9 40 24 55 20
5 -1 2 6 -7 16 -9 10 -15 27 -13 38 2 11 4 28 4 37 1 21 61 37 61 16z m2166
-45 c-11 -7 -32 -12 -45 -13 -20 0 -21 2 -11 15 7 8 23 15 36 15 16 0 24 6 25
18 0 14 2 14 8 -3 6 -15 3 -23 -13 -32z m-2106 -5 c0 -13 -5 -30 -10 -38 -9
-13 -12 -12 -25 4 -8 11 -15 24 -15 28 0 7 27 22 48 27 1 1 2 -9 2 -21z m-655
-18 c3 -5 -3 -10 -14 -10 -12 0 -21 5 -21 10 0 6 6 10 14 10 8 0 18 -4 21 -10z
m2508 -87 c5 -40 3 -43 -18 -43 -22 0 -23 2 -14 32 5 18 9 51 10 73 1 39 1 39
9 10 4 -16 10 -49 13 -72z m-2029 72 c-4 -8 -10 -12 -15 -9 -11 6 -2 24 11 24
5 0 7 -7 4 -15z m-641 -15 c3 -11 0 -23 -5 -27 -6 -3 -8 -1 -4 5 3 5 1 12 -6
14 -6 2 -8 10 -4 16 10 16 13 15 19 -8z m582 -4 c13 -5 16 -10 7 -13 -6 -3
-10 -9 -6 -14 3 -5 1 -9 -4 -9 -5 0 -12 8 -16 18 -3 9 -9 24 -12 32 -3 9 -2
11 3 4 4 -6 17 -14 28 -18z m-55 4 c0 -5 -2 -10 -4 -10 -3 0 -8 5 -11 10 -3 6
-1 10 4 10 6 0 11 -4 11 -10z m2180 -21 c0 -5 11 -27 25 -47 14 -20 25 -43 24
-52 0 -8 -5 -3 -11 13 -5 15 -13 27 -18 27 -4 0 -17 16 -29 35 -16 28 -17 35
-6 35 8 0 15 -5 15 -11z m-2050 -54 c0 -8 -2 -15 -4 -15 -2 0 -6 7 -10 15 -3
8 -1 15 4 15 6 0 10 -7 10 -15z m-409 -25 c22 -12 26 -50 5 -50 -27 0 -46 12
-46 29 0 31 11 36 41 21z m415 -20 c16 0 15 -48 -1 -54 -9 -3 -15 0 -15 9 0
28 -1 30 -22 38 -17 6 -18 10 -7 23 12 14 14 14 25 0 6 -9 15 -16 20 -16z
m154 16 c0 -7 -6 -19 -14 -26 -8 -6 -13 -17 -10 -24 3 -7 -2 -19 -11 -26 -12
-10 -15 -10 -15 3 0 8 6 18 13 20 6 3 3 6 -8 6 -17 1 -17 3 -5 11 13 8 12 11
-5 24 -19 13 -18 14 8 9 16 -3 27 -1 27 6 0 6 5 11 10 11 6 0 10 -6 10 -14z
m86 -10 c10 -11 11 -17 3 -22 -6 -3 -15 0 -20 7 -18 29 -7 39 17 15z m-169 -2
c-3 -3 -12 -4 -19 -1 -8 3 -5 6 6 6 11 1 17 -2 13 -5z m125 -46 c-7 -7 -18 -5
-33 5 -23 17 -22 17 21 30 18 5 26 -21 12 -35z m-849 -10 c12 -19 3 -48 -16
-48 -9 0 -14 13 -15 36 -1 37 12 42 31 12z m722 8 c0 0 11 -13 24 -28 31 -35
15 -37 -21 -3 -15 14 -31 25 -35 24 -4 0 -9 5 -11 11 -3 8 3 10 19 5 13 -4 24
-8 24 -9z m-181 -10 c9 3 16 1 16 -6 0 -16 -62 -9 -68 8 -3 11 0 12 16 3 11
-6 28 -8 36 -5z m86 -25 c0 -3 -8 -11 -18 -18 -17 -10 -18 -8 -14 12 2 15 9
22 18 18 8 -3 14 -8 14 -12z m241 -24 c-13 -13 -26 -3 -16 12 3 6 11 8 17 5 6
-4 6 -10 -1 -17z m-146 -39 c-9 -77 -14 -88 -36 -88 -23 0 -24 8 -4 34 21 27
19 39 -6 33 -16 -4 -18 -3 -8 9 6 7 15 11 20 8 5 -3 10 1 11 8 0 7 2 18 3 23
2 6 3 13 4 18 0 4 6 7 12 7 7 0 9 -17 4 -52z m157 -17 c-2 -30 3 -35 38 -32 8
1 4 -5 -10 -13 -32 -19 -44 -20 -37 -1 8 18 -11 30 -40 26 -34 -4 -30 32 5 46
38 15 47 10 44 -26z m84 -56 c-1 -8 -5 -17 -8 -21 -5 -4 -4 16 1 34 3 9 9 -1
7 -13z m-819 -27 c2 -17 0 -19 -7 -8 -5 8 -6 18 -4 22 8 12 10 10 11 -14z
m787 14 c3 -5 -1 -9 -9 -9 -8 0 -12 4 -9 9 3 4 7 8 9 8 2 0 6 -4 9 -8z m-837
-15 c0 -8 -6 -14 -14 -14 -9 0 -10 4 -2 14 6 7 12 13 14 13 1 0 2 -6 2 -13z
m310 -609 c-3 -8 -6 -5 -6 6 -1 11 2 17 5 13 3 -3 4 -12 1 -19z m466 -225 c-7
-2 -19 -2 -25 0 -7 3 -2 5 12 5 14 0 19 -2 13 -5z m-325 -210 c-10 -21 -21
-29 -46 -31 -39 -4 -41 7 -5 33 14 11 31 25 37 32 19 20 29 -4 14 -34z m465
-28 c12 0 3 -19 -11 -22 -8 -1 -11 1 -8 4 3 4 0 13 -7 21 -10 13 -9 14 3 7 8
-6 18 -10 23 -10z m1627 -195 c0 -5 -7 -10 -15 -10 -8 0 -15 5 -15 10 0 6 7
10 15 10 8 0 15 -4 15 -10z m-90 -20 c0 -5 -8 -10 -17 -10 -15 0 -16 2 -3 10
19 12 20 12 20 0z m-75 -60 c3 -5 1 -10 -4 -10 -6 0 -11 5 -11 10 0 6 2 10 4
10 3 0 8 -4 11 -10z m-25 -19 c0 -6 -4 -13 -10 -16 -5 -3 -10 1 -10 9 0 9 5
16 10 16 6 0 10 -4 10 -9z m45 -10 c-3 -6 -11 -11 -17 -11 -6 0 -6 6 2 15 14
17 26 13 15 -4z m380 -11 c-3 -5 -11 -10 -16 -10 -6 0 -7 5 -4 10 3 6 11 10
16 10 6 0 7 -4 4 -10z"/>
<path d="M3658 7193 c-10 -2 -18 -9 -18 -13 0 -6 10 -6 23 -1 12 5 32 5 45 0
12 -5 22 -5 22 0 0 8 -37 22 -50 20 -3 -1 -13 -3 -22 -6z"/>
<path d="M3360 7154 c0 -31 3 -35 22 -32 29 4 35 28 9 35 -12 3 -21 10 -21 15
0 6 7 8 15 4 8 -3 15 -1 15 4 0 6 -9 10 -20 10 -16 0 -20 -7 -20 -36z m40 -14
c0 -5 -7 -10 -15 -10 -8 0 -15 5 -15 10 0 6 7 10 15 10 8 0 15 -4 15 -10z"/>
<path d="M3426 7181 c-4 -5 3 -7 14 -4 23 6 26 13 6 13 -8 0 -17 -4 -20 -9z"/>
<path d="M3542 7158 c-2 -34 1 -38 21 -37 15 1 17 3 5 6 -10 2 -18 17 -21 36
-4 31 -4 31 -5 -5z"/>
<path d="M4379 7173 c-8 -10 -9 -14 -2 -10 7 5 13 -2 16 -20 3 -23 4 -21 6 10
1 42 -1 44 -20 20z"/>
<path d="M4478 7154 c-17 -34 -17 -34 5 -33 12 0 16 3 10 6 -10 3 -10 10 -2
24 6 11 9 24 7 29 -2 4 -11 -7 -20 -26z"/>
<path d="M4538 7155 c2 -19 6 -35 8 -35 2 0 4 16 4 35 0 19 -4 35 -8 35 -4 0
-6 -16 -4 -35z"/>
<path d="M4671 7153 c1 -33 2 -35 8 -13 l7 25 7 -25 c6 -21 9 -22 17 -10 5 8
10 20 10 25 0 6 -4 3 -9 -4 -8 -12 -11 -9 -16 12 -10 40 -25 33 -24 -10z"/>
<path d="M4727 7158 c8 -46 13 -48 13 -5 0 21 -4 37 -10 37 -5 0 -7 -14 -3
-32z"/>
<path d="M5654 7178 c-4 -6 -3 -8 4 -4 7 4 12 -6 15 -26 4 -33 4 -33 5 5 2 36
-10 49 -24 25z"/>
<path d="M5706 7182 c-2 -4 4 -8 15 -8 10 0 19 4 19 8 0 4 -6 8 -14 8 -8 0
-17 -4 -20 -8z"/>
<path d="M5755 7171 c-3 -11 -2 -29 4 -38 8 -15 10 -13 8 11 -1 17 4 31 12 34
10 3 13 -3 9 -27 -3 -19 -1 -28 5 -22 14 14 4 55 -15 59 -9 2 -19 -5 -23 -17z"/>
<path d="M5815 7181 c-6 -11 9 -23 19 -14 9 9 7 23 -3 23 -6 0 -12 -4 -16 -9z"/>
<path d="M5922 7158 l3 -33 85 0 85 0 0 30 0 30 -88 3 -88 3 3 -33z"/>
<path d="M3033 7164 c-8 -20 8 -36 26 -25 15 10 8 41 -9 41 -6 0 -13 -7 -17
-16z"/>
<path d="M3093 7164 c-8 -20 8 -36 26 -25 15 10 8 41 -9 41 -6 0 -13 -7 -17
-16z"/>
<path d="M3153 7164 c-8 -21 13 -42 28 -27 13 13 5 43 -11 43 -6 0 -13 -7 -17
-16z"/>
<path d="M3481 7153 c-1 -28 2 -33 22 -32 15 1 17 3 5 6 -9 2 -19 16 -21 31
-4 24 -4 24 -6 -5z"/>
<path d="M3656 7162 c-2 -4 10 -8 29 -8 19 0 31 4 29 8 -3 4 -16 8 -29 8 -13
0 -26 -4 -29 -8z"/>
<path d="M6111 7154 c0 -11 3 -14 6 -6 3 7 2 16 -1 19 -3 4 -6 -2 -5 -13z"/>
<path d="M3438 7153 c7 -3 16 -2 19 1 4 3 -2 6 -13 5 -11 0 -14 -3 -6 -6z"/>
<path d="M4611 7144 c0 -11 3 -14 6 -6 3 7 2 16 -1 19 -3 4 -6 -2 -5 -13z"/>
<path d="M5855 7139 c-10 -15 3 -25 16 -12 7 7 7 13 1 17 -6 3 -14 1 -17 -5z"/>
<path d="M3675 7130 c4 -6 11 -8 16 -5 14 9 11 15 -7 15 -8 0 -12 -5 -9 -10z"/>
<path d="M5700 7128 c0 -4 9 -8 20 -8 11 0 20 4 20 8 0 4 -9 8 -20 8 -11 0
-20 -4 -20 -8z"/>
<path d="M3438 7123 c7 -3 16 -2 19 1 4 3 -2 6 -13 5 -11 0 -14 -3 -6 -6z"/>
<path d="M3115 6950 l-39 -40 34 -35 c19 -19 38 -35 44 -35 5 0 -5 16 -24 35
l-34 35 34 35 c18 19 31 37 29 40 -3 2 -23 -13 -44 -35z"/>
<path d="M4430 6945 c-7 -8 -7 -15 -1 -19 6 -4 8 -13 4 -21 -6 -17 13 -45 30
-45 7 0 7 4 -1 12 -14 14 -16 55 -3 60 5 2 3 8 -4 15 -10 10 -16 9 -25 -2z"/>
<path d="M4230 6900 c0 -22 5 -40 10 -40 6 0 10 18 10 40 0 22 -4 40 -10 40
-5 0 -10 -18 -10 -40z"/>
<path d="M4271 6896 l2 -41 6 35 c4 22 12 35 21 35 9 0 18 -13 22 -35 l6 -35
-1 40 c-2 36 -5 40 -29 41 -26 1 -28 -1 -27 -40z"/>
<path d="M4357 6933 c-13 -12 -7 -23 18 -35 29 -13 23 -32 -8 -22 -17 5 -19 3
-11 -6 7 -6 20 -10 30 -8 27 5 30 35 5 43 -12 3 -21 11 -21 16 0 6 9 7 21 4
15 -5 19 -4 15 4 -8 12 -39 15 -49 4z"/>
<path d="M4484 6929 c-5 -9 -2 -10 10 -6 10 4 23 4 29 0 7 -4 2 -9 -13 -13
-37 -9 -34 -45 3 -45 26 -1 28 2 25 35 -2 27 -8 36 -25 38 -11 2 -25 -2 -29
-9z m46 -38 c0 -12 -28 -22 -34 -12 -3 5 -3 11 1 15 9 9 33 7 33 -3z"/>
<path d="M4564 6926 c-11 -29 1 -51 31 -57 29 -6 27 -9 -15 -22 -12 -4 -12 -6
3 -12 28 -11 47 13 47 59 0 39 -2 42 -30 44 -19 1 -33 -3 -36 -12z m49 -32
c-3 -8 -11 -14 -18 -14 -18 0 -26 25 -12 39 14 14 38 -5 30 -25z"/>
<path d="M4650 6899 c0 -22 5 -39 10 -39 6 0 10 13 10 30 0 17 7 33 17 38 13
8 11 10 -10 10 -25 0 -27 -4 -27 -39z"/>
<path d="M4715 6930 c-5 -9 -1 -10 14 -5 12 4 21 2 21 -4 0 -6 -6 -11 -14 -11
-7 0 -19 -6 -25 -14 -14 -17 2 -31 37 -31 20 -1 23 3 20 35 -2 27 -8 36 -25
38 -11 2 -24 -2 -28 -8z m35 -38 c0 -13 -12 -22 -22 -16 -10 6 -1 24 13 24 5
0 9 -4 9 -8z"/>
<path d="M4790 6899 c0 -24 4 -38 10 -34 6 3 10 20 10 36 0 42 23 33 31 -12
l6 -34 4 34 c5 44 29 54 29 12 0 -16 5 -33 11 -36 7 -5 9 6 7 31 l-3 39 -52 2
-53 3 0 -41z"/>
<path d="M5916 6921 c-4 -5 -2 -12 3 -15 5 -4 12 -2 15 3 4 5 2 12 -3 15 -5 4
-12 2 -15 -3z"/>
<path d="M5960 6916 c0 -9 5 -16 10 -16 6 0 10 4 10 9 0 6 -4 13 -10 16 -5 3
-10 -1 -10 -9z"/>
<path d="M6006 6921 c-4 -7 -5 -15 -2 -18 9 -9 19 4 14 18 -4 11 -6 11 -12 0z"/>
<path d="M3309 6606 c-139 -37 -234 -148 -246 -287 -6 -61 13 -153 28 -143 5
3 6 10 3 16 -4 7 -2 8 4 4 15 -9 16 6 1 21 -8 8 -7 13 3 18 7 5 10 5 6 0 -4
-4 -3 -14 3 -22 9 -10 7 -19 -5 -38 -12 -18 -13 -24 -4 -23 7 2 12 -3 10 -10
-1 -8 2 -11 8 -7 7 5 8 11 1 19 -12 15 -2 31 22 33 9 0 21 1 26 2 5 0 11 54
13 119 2 98 6 121 23 144 29 38 86 51 211 46 l106 -4 35 -37 35 -38 -4 -136
-3 -135 -33 -29 c-18 -16 -42 -29 -55 -29 -12 0 -17 -4 -12 -8 6 -4 11 -13 13
-20 1 -7 10 -24 18 -38 13 -19 19 -22 36 -13 41 22 101 85 126 133 24 45 27
62 27 146 0 83 -3 101 -27 145 -28 53 -96 123 -144 148 -32 16 -123 37 -157
36 -12 0 -43 -6 -68 -13z m-146 -402 c1 -4 -6 -8 -15 -10 -21 -3 -22 2 -5 20
11 13 15 11 20 -10z m367 -155 c5 9 8 3 8 -14 l0 -27 -19 28 c-10 15 -15 33
-11 38 4 6 9 0 10 -13 3 -17 6 -20 12 -12z m35 2 c3 -5 2 -12 -3 -15 -5 -3 -9
1 -9 9 0 17 3 19 12 6z"/>
<path d="M4125 6570 c-4 -7 2 -9 19 -4 29 7 36 -10 10 -24 -15 -8 -15 -10 0
-15 27 -10 19 -30 -9 -23 -30 8 -34 -10 -4 -19 26 -9 55 17 43 37 -5 7 -7 23
-5 36 2 18 -2 22 -23 22 -14 0 -28 -5 -31 -10z"/>
<path d="M4215 6570 c-5 -9 -1 -10 13 -6 25 8 40 -11 17 -21 -16 -5 -16 -7 -1
-15 25 -14 19 -31 -9 -26 -27 6 -34 -6 -10 -16 31 -11 45 4 42 48 -2 33 -6 42
-24 44 -11 2 -24 -2 -28 -8z"/>
<path d="M4303 6573 c-7 -2 -13 -9 -13 -14 0 -4 6 -6 14 -3 11 4 16 -5 19 -38
3 -42 4 -42 5 10 2 51 0 55 -25 45z"/>
<path d="M4376 6555 c-23 -35 -20 -52 12 -58 35 -7 40 0 35 46 -6 43 -24 48
-47 12z m24 -15 c0 -11 -7 -20 -15 -20 -13 0 -13 3 -3 20 7 11 14 20 15 20 2
0 3 -9 3 -20z"/>
<path d="M4840 6565 c-11 -13 -10 -14 3 -9 13 4 17 -3 20 -38 3 -42 4 -42 5
10 2 53 -6 64 -28 37z"/>
<path d="M4918 6573 c26 -5 27 -14 6 -54 -8 -17 -13 -33 -10 -36 5 -6 46 70
46 87 0 5 -15 9 -32 9 -24 -1 -27 -3 -10 -6z"/>
<path d="M4987 6573 c-11 -10 -8 -25 3 -18 6 4 10 -8 10 -29 0 -20 5 -36 10
-36 6 0 10 20 10 45 0 43 -14 58 -33 38z"/>
<path d="M5607 6573 c-14 -13 -6 -25 8 -13 12 10 19 10 27 2 9 -9 5 -19 -15
-40 -15 -15 -27 -30 -27 -33 0 -2 14 -4 30 -5 17 -1 30 3 30 7 0 5 -7 9 -15 9
-14 0 -13 3 1 25 9 14 14 32 10 40 -5 15 -37 21 -49 8z"/>
<path d="M5687 6566 c-11 -28 4 -48 30 -43 15 3 22 0 20 -7 -2 -6 -14 -11 -26
-10 -24 1 -28 -14 -6 -22 26 -10 46 16 43 55 -3 30 -7 36 -29 39 -17 2 -29 -3
-32 -12z m48 -16 c0 -8 -8 -16 -17 -18 -13 -2 -18 3 -18 18 0 15 5 20 18 18 9
-2 17 -10 17 -18z"/>
<path d="M5783 6573 c-7 -2 -13 -9 -13 -14 0 -4 6 -6 13 -3 10 3 12 -4 9 -30
-2 -18 1 -37 7 -40 7 -5 11 9 11 43 0 50 -3 54 -27 44z"/>
<path d="M5048 6522 c-2 -18 0 -35 4 -38 4 -3 8 9 8 25 0 43 27 41 33 -1 l4
-33 1 33 c2 39 32 46 32 7 0 -14 5 -25 11 -25 6 0 9 14 7 33 -3 31 -4 32 -50
33 -45 0 -46 -1 -50 -34z"/>
<path d="M3274 6450 c-44 -14 -55 -48 -52 -161 l3 -94 18 30 c10 18 16 22 13
10 -7 -27 9 -54 17 -30 5 10 3 14 -5 9 -7 -4 -8 -3 -4 4 5 9 12 9 26 0 10 -7
17 -15 14 -19 -2 -4 0 -10 6 -14 6 -4 7 -11 4 -17 -4 -6 -2 -8 4 -5 15 10 10
29 -16 61 -26 34 -29 91 -6 124 38 55 119 65 162 19 49 -52 45 -116 -10 -162
-27 -22 -39 -26 -73 -22 -22 3 -34 3 -27 0 6 -3 9 -10 6 -15 -5 -7 -2 -8 5 -3
14 8 63 -14 56 -25 -2 -3 18 -7 45 -9 39 -1 52 2 69 20 19 20 21 35 21 140 0
159 -2 161 -141 165 -57 2 -118 -1 -135 -6z m244 -45 c4 -20 -15 -36 -35 -28
-17 6 -17 40 0 46 19 8 32 2 35 -18z m-70 -252 c-8 -11 -14 -11 -27 -1 -9 7
-17 13 -19 14 -2 1 10 1 27 0 23 0 27 -4 19 -13z m36 -1 c3 -5 -1 -9 -9 -9 -8
0 -12 4 -9 9 3 4 7 8 9 8 2 0 6 -4 9 -8z"/>
<path d="M3345 6335 c-30 -29 -32 -58 -5 -85 40 -40 110 -14 110 41 0 30 -9
43 -37 58 -31 16 -41 14 -68 -14z"/>
<path d="M3264 6172 c4 -3 14 -7 22 -8 9 -1 13 0 10 4 -4 3 -14 7 -22 8 -9 1
-13 0 -10 -4z"/>
<path d="M3136 6158 c3 -5 10 -6 15 -3 13 9 11 12 -6 12 -8 0 -12 -4 -9 -9z"/>
<path d="M3365 6150 c-7 -11 22 -26 32 -16 4 3 -1 6 -11 6 -9 0 -14 5 -11 10
3 6 4 10 1 10 -3 0 -8 -5 -11 -10z"/>
<path d="M3073 5770 c0 -25 2 -35 4 -22 2 12 2 32 0 45 -2 12 -4 2 -4 -23z"/>
<path d="M3238 5798 c-9 -25 5 -68 21 -67 10 0 11 2 4 6 -15 5 -17 40 -4 45 5
2 3 8 -4 15 -10 9 -15 9 -17 1z"/>
<path d="M3101 5758 c1 -30 2 -30 8 -9 9 35 29 37 34 4 4 -27 4 -27 6 5 1 28
-2 32 -24 32 -22 0 -25 -4 -24 -32z"/>
<path d="M3170 5776 c0 -8 10 -18 23 -22 l22 -8 -25 -7 -25 -8 24 2 c32 3 38
23 9 33 -22 7 -22 7 -3 15 19 7 19 8 -2 8 -14 1 -23 -5 -23 -13z"/>
<path d="M3300 5782 c21 -10 25 -42 5 -42 -9 0 -13 5 -10 10 3 6 1 10 -4 10
-6 0 -11 -7 -11 -15 0 -9 9 -15 25 -15 21 0 25 5 25 30 0 25 -4 30 -22 29 -17
0 -19 -2 -8 -7z"/>
<path d="M3357 5783 c-14 -14 -6 -45 13 -50 11 -3 17 -9 15 -14 -3 -4 -13 -6
-23 -3 -15 5 -15 4 1 -6 26 -17 47 4 47 46 0 29 -3 34 -23 34 -13 0 -27 -3
-30 -7z m33 -23 c0 -21 -15 -27 -25 -10 -7 12 2 30 16 30 5 0 9 -9 9 -20z"/>
<path d="M3420 5760 c0 -16 5 -30 10 -30 6 0 10 11 10 24 0 13 6 27 13 29 6 3
2 6 -10 6 -19 1 -23 -4 -23 -29z"/>
<path d="M3490 5782 c21 -10 25 -42 5 -42 -9 0 -13 5 -10 10 3 6 1 10 -4 10
-6 0 -11 -7 -11 -15 0 -9 9 -15 25 -15 21 0 25 5 25 30 0 25 -4 30 -22 29 -17
0 -19 -2 -8 -7z"/>
<path d="M3541 5758 c1 -30 2 -30 8 -9 9 35 29 37 34 4 l4 -28 2 28 c1 34 22
32 32 -4 6 -21 7 -21 8 9 1 31 0 32 -44 32 -44 0 -45 -1 -44 -32z"/>
<path d="M3765 5759 c-4 -6 -5 -12 -2 -15 2 -3 7 2 10 11 7 17 1 20 -8 4z"/>
<path d="M3072 5598 l1 -43 4 38 c3 29 8 37 21 35 24 -5 28 -55 5 -62 -15 -4
-15 -5 2 -3 16 2 20 10 20 37 0 31 -3 35 -27 38 -27 3 -28 2 -26 -40z"/>
<path d="M4078 5600 c-2 -22 0 -40 4 -40 5 0 8 18 8 40 0 22 -2 40 -4 40 -2 0
-6 -18 -8 -40z"/>
<path d="M4253 5600 c0 -25 2 -35 4 -22 2 12 2 32 0 45 -2 12 -4 2 -4 -23z"/>
<path d="M4283 5600 c0 -25 2 -35 4 -22 2 12 2 32 0 45 -2 12 -4 2 -4 -23z"/>
<path d="M5077 5633 c-4 -3 -7 -22 -7 -41 0 -44 6 -39 13 11 5 39 5 41 -6 30z"/>
<path d="M5720 5626 c0 -9 -7 -12 -19 -9 -13 3 -21 -2 -26 -16 -7 -23 0 -41
17 -41 6 0 6 6 -2 15 -9 11 -10 19 -2 27 15 15 35 -1 29 -23 -3 -11 -1 -19 4
-19 5 0 9 18 9 40 0 22 -2 40 -5 40 -3 0 -5 -6 -5 -14z"/>
<path d="M5822 5600 c0 -34 2 -39 7 -20 4 14 13 25 21 25 8 0 17 -11 21 -25 4
-14 7 -18 8 -8 2 28 -10 48 -29 48 -10 0 -21 6 -23 13 -3 6 -5 -8 -5 -33z"/>
<path d="M4147 5623 c-2 -5 -1 -21 3 -38 l6 -30 5 33 c5 30 -4 53 -14 35z"/>
<path d="M4728 5625 c-6 -7 3 -65 11 -65 7 0 7 58 -1 65 -2 3 -7 3 -10 0z"/>
<path d="M5780 5615 c0 -9 6 -12 15 -9 8 4 15 7 15 9 0 2 -7 5 -15 9 -9 3 -15
0 -15 -9z"/>
<path d="M3152 5590 c0 -19 2 -27 5 -17 2 9 2 25 0 35 -3 9 -5 1 -5 -18z"/>
<path d="M3185 5609 c-4 -6 -4 -13 -1 -16 3 -4 6 -1 6 5 0 6 8 13 18 15 15 4
15 5 0 6 -9 0 -20 -4 -23 -10z"/>
<path d="M3247 5613 c-10 -9 -8 -53 2 -53 4 0 6 12 3 27 -4 23 -2 25 17 20 11
-3 19 -1 15 4 -6 11 -28 12 -37 2z"/>
<path d="M3310 5606 c-14 -17 -7 -46 11 -46 8 0 8 4 -1 15 -9 11 -10 19 -2 27
15 15 35 -1 28 -25 -3 -14 -2 -17 5 -10 15 15 7 47 -12 51 -9 1 -22 -4 -29
-12z"/>
<path d="M3370 5615 c0 -5 5 -17 10 -25 5 -8 10 -10 10 -5 0 6 -5 17 -10 25
-5 8 -10 11 -10 5z"/>
<path d="M3403 5590 c-6 -17 -8 -30 -3 -30 8 0 24 50 18 56 -2 2 -9 -10 -15
-26z"/>
<path d="M3435 5599 c-4 -12 -2 -26 4 -32 7 -7 9 -4 6 11 -4 23 16 44 23 24 2
-7 8 -12 13 -12 4 0 6 7 3 15 -9 22 -42 18 -49 -6z"/>
<path d="M3501 5588 c1 -22 3 -26 6 -13 3 11 10 26 15 33 8 9 6 12 -6 12 -12
0 -16 -9 -15 -32z"/>
<path d="M3552 5590 c0 -19 2 -27 5 -17 2 9 2 25 0 35 -3 9 -5 1 -5 -18z"/>
<path d="M3581 5588 c2 -31 2 -31 6 -5 5 33 24 31 35 -4 6 -22 7 -21 5 6 -2
23 -7 31 -24 33 -20 3 -23 -1 -22 -30z"/>
<path d="M3645 5600 c-8 -26 1 -40 26 -40 12 0 17 -4 14 -11 -4 -6 -14 -8 -24
-4 -11 4 -13 3 -5 -5 20 -21 44 0 44 39 0 32 -3 37 -24 39 -17 1 -27 -5 -31
-18z m43 -13 c2 -10 -3 -17 -12 -17 -18 0 -29 16 -21 31 9 14 29 6 33 -14z"/>
<path d="M3906 5611 c-3 -5 3 -7 14 -4 18 5 20 2 16 -21 -3 -14 0 -26 5 -26
17 0 5 55 -13 58 -9 2 -19 -1 -22 -7z"/>
<path d="M3972 5590 c0 -19 2 -27 5 -17 2 9 2 25 0 35 -3 9 -5 1 -5 -18z"/>
<path d="M3996 5613 c7 -4 14 -19 17 -33 4 -22 5 -21 4 4 -1 17 -9 31 -17 33
-10 3 -11 2 -4 -4z"/>
<path d="M4041 5606 c-12 -15 -5 -46 11 -46 6 0 4 7 -3 16 -11 14 -10 18 6 30
10 8 14 14 8 14 -6 0 -16 -6 -22 -14z"/>
<path d="M4187 5614 c-10 -10 -9 -42 2 -48 4 -3 6 6 3 19 -3 18 0 25 11 25 8
0 18 -5 20 -10 3 -6 4 -5 3 2 -3 15 -28 22 -39 12z"/>
<path d="M4312 5590 c0 -19 2 -27 5 -17 2 9 2 25 0 35 -3 9 -5 1 -5 -18z"/>
<path d="M4341 5588 c2 -30 2 -31 6 -5 5 34 30 36 36 2 4 -23 4 -23 3 2 -1 21
-7 29 -23 31 -20 3 -23 -1 -22 -30z"/>
<path d="M4406 5605 c-8 -23 4 -45 26 -45 11 0 16 -4 13 -11 -4 -6 -14 -8 -24
-4 -12 5 -13 3 -4 -6 23 -23 43 -2 42 43 -2 30 -3 35 -6 16 -2 -16 -11 -28
-18 -28 -23 0 -29 22 -10 37 16 11 16 13 3 13 -9 0 -18 -7 -22 -15z"/>
<path d="M4667 5613 c-12 -12 -7 -22 13 -28 11 -4 17 -11 14 -17 -5 -7 -2 -8
6 -3 10 6 7 12 -10 25 -22 17 -23 18 -4 23 13 3 14 5 3 6 -9 0 -19 -2 -22 -6z"/>
<path d="M4765 5600 c-7 -23 1 -40 18 -40 8 0 7 3 -2 9 -17 11 -7 45 12 38 6
-2 12 -14 11 -26 0 -13 3 -18 9 -12 14 14 -2 51 -23 51 -10 0 -21 -9 -25 -20z"/>
<path d="M4831 5588 c1 -22 3 -26 6 -13 3 11 10 26 15 33 8 9 6 12 -6 12 -12
0 -16 -9 -15 -32z"/>
<path d="M4882 5590 c0 -19 2 -27 5 -17 2 9 2 25 0 35 -3 9 -5 1 -5 -18z"/>
<path d="M4917 5614 c-10 -10 -9 -54 2 -54 4 0 6 11 3 25 -3 18 0 25 11 25 8
0 18 -5 20 -10 3 -6 4 -5 3 2 -3 15 -28 22 -39 12z"/>
<path d="M4975 5611 c-3 -5 4 -16 15 -24 11 -7 17 -17 13 -20 -3 -4 -1 -7 5
-7 7 0 12 7 12 15 0 8 -6 15 -14 15 -8 0 -18 5 -22 12 -5 8 0 9 14 6 12 -4 20
-2 16 3 -7 12 -31 12 -39 0z"/>
<path d="M5111 5588 c1 -22 3 -26 6 -13 3 11 10 26 15 33 8 9 6 12 -6 12 -12
0 -16 -9 -15 -32z"/>
<path d="M5160 5606 c-14 -17 -7 -46 11 -46 8 0 8 4 -1 15 -9 11 -10 19 -2 27
15 15 35 -1 28 -25 -3 -14 -2 -17 5 -10 15 15 7 47 -12 51 -9 1 -22 -4 -29
-12z"/>
<path d="M5227 5614 c-4 -4 -7 -19 -6 -33 l1 -26 7 24 c9 34 29 37 34 6 4 -24
4 -24 3 2 -1 27 -24 42 -39 27z"/>
<path d="M5286 5613 c7 -4 14 -19 17 -33 4 -22 5 -21 4 4 -1 17 -9 31 -17 33
-10 3 -11 2 -4 -4z"/>
<path d="M5383 5614 c14 -4 18 -13 14 -30 -2 -13 0 -24 5 -24 5 0 8 12 6 27
-2 19 -9 28 -23 30 -17 2 -18 1 -2 -3z"/>
<path d="M5431 5588 c2 -28 2 -29 6 -8 3 14 10 28 17 32 7 5 5 8 -6 8 -14 0
-18 -8 -17 -32z"/>
<path d="M5477 5614 c-10 -10 -9 -54 2 -54 4 0 6 11 3 25 -3 19 0 25 13 25 13
0 16 -6 13 -25 -3 -14 -1 -25 4 -25 5 0 8 12 6 27 -3 27 -26 41 -41 27z"/>
<path d="M5540 5590 c0 -16 4 -30 8 -30 5 0 7 14 4 30 -2 17 -6 30 -8 30 -2 0
-4 -13 -4 -30z"/>
<path d="M5578 5590 c-3 -16 -1 -30 4 -30 4 0 8 14 8 30 0 17 -2 30 -4 30 -2
0 -6 -13 -8 -30z"/>
<path d="M5612 5590 c0 -19 2 -27 5 -17 2 9 2 25 0 35 -3 9 -5 1 -5 -18z"/>
<path d="M5636 5613 c7 -4 14 -19 17 -33 4 -22 5 -21 4 4 -1 17 -9 31 -17 33
-10 3 -11 2 -4 -4z"/>
<path d="M5895 5599 c-4 -12 -2 -26 4 -32 7 -7 9 -4 6 11 -4 23 16 44 23 24 2
-7 8 -12 13 -12 4 0 6 7 3 15 -9 22 -42 18 -49 -6z"/>
<path d="M3206 5575 c4 -8 8 -15 10 -15 2 0 4 7 4 15 0 8 -4 15 -10 15 -5 0
-7 -7 -4 -15z"/>
<path d="M3900 5575 c0 -8 4 -15 8 -15 5 0 9 7 9 15 0 8 -4 15 -9 15 -4 0 -8
-7 -8 -15z"/>
<path d="M5360 5575 c0 -8 4 -15 8 -15 5 0 9 7 9 15 0 8 -4 15 -9 15 -4 0 -8
-7 -8 -15z"/>
<path d="M5780 5581 c0 -6 4 -13 10 -16 6 -3 7 1 4 9 -7 18 -14 21 -14 7z"/>
<path d="M3273 5445 c0 -27 2 -38 4 -22 2 15 2 37 0 50 -2 12 -4 0 -4 -28z"/>
<path d="M3338 5473 c-2 -10 -1 -31 3 -48 6 -26 7 -23 8 18 1 48 -3 61 -11 30z"/>
<path d="M3452 5481 c-21 -13 -11 -75 12 -79 10 -2 22 0 27 5 6 6 1 9 -13 9
-17 -1 -24 5 -26 23 -5 33 13 48 34 30 15 -12 17 -12 12 1 -6 18 -28 23 -46
11z"/>
<path d="M3848 5473 c-2 -10 -1 -31 3 -48 6 -26 7 -23 8 18 1 48 -3 61 -11 30z"/>
<path d="M3911 5453 c-1 -33 3 -43 19 -48 11 -3 24 -3 30 0 15 10 12 41 -7 56
-15 13 -15 12 -2 -8 10 -17 11 -25 2 -34 -14 -14 -36 -2 -29 17 3 8 1 24 -4
36 -7 19 -9 16 -9 -19z"/>
<path d="M4083 5440 c0 -25 2 -35 4 -22 2 12 2 32 0 45 -2 12 -4 2 -4 -23z"/>
<path d="M4247 5473 c-6 -11 4 -73 12 -73 4 0 5 18 3 40 -4 40 -7 46 -15 33z"/>
<path d="M5270 5447 c0 -20 3 -38 8 -40 9 -6 8 61 -2 70 -3 3 -6 -10 -6 -30z"/>
<path d="M5410 5447 c0 -20 3 -38 8 -40 9 -6 8 61 -2 70 -3 3 -6 -10 -6 -30z"/>
<path d="M3700 5460 c0 -5 5 -10 10 -10 6 0 10 5 10 10 0 6 -4 10 -10 10 -5 0
-10 -4 -10 -10z"/>
<path d="M3751 5457 c-16 -16 -14 -47 5 -54 8 -3 20 -1 26 5 8 8 5 9 -11 5
-12 -3 -21 -1 -21 6 0 6 9 11 20 11 23 0 27 25 6 33 -7 3 -19 0 -25 -6z m24
-7 c3 -5 -1 -10 -10 -10 -9 0 -13 5 -10 10 3 6 8 10 10 10 2 0 7 -4 10 -10z"/>
<path d="M4147 5438 c8 -44 13 -48 13 -10 0 17 -4 34 -10 37 -6 4 -7 -6 -3
-27z"/>
<path d="M4361 5460 c-17 -10 -10 -52 9 -58 13 -5 13 -3 1 11 -14 18 -7 52 9
42 5 -3 10 -19 10 -35 0 -22 -5 -30 -22 -33 -20 -4 -19 -4 5 -6 25 -1 27 2 27
38 0 40 -16 56 -39 41z"/>
<path d="M4597 5460 c6 -8 13 -26 16 -40 l4 -25 2 26 c0 15 -7 33 -16 40 -16
12 -17 12 -6 -1z"/>
<path d="M4670 5460 c-15 -9 -5 -30 16 -30 8 0 14 -5 14 -11 0 -7 -9 -9 -21
-6 -16 4 -19 3 -11 -5 12 -12 42 -4 42 13 0 6 -9 13 -20 16 -11 3 -17 9 -15
14 3 4 12 6 20 2 8 -3 15 -3 15 0 0 10 -27 15 -40 7z"/>
<path d="M4773 5463 c-18 -7 -16 -52 3 -60 8 -3 20 -1 26 5 8 8 5 9 -11 5 -19
-5 -22 -2 -19 18 2 16 9 23 21 21 9 -2 17 -1 17 1 0 8 -25 14 -37 10z"/>
<path d="M5028 5439 c5 -35 8 -36 14 -5 3 14 0 27 -7 29 -7 3 -10 -5 -7 -24z"/>
<path d="M5069 5432 c5 -34 6 -35 9 -8 2 16 0 32 -5 37 -5 5 -7 -7 -4 -29z"/>
<path d="M5461 5461 c-20 -13 -10 -55 14 -58 16 -1 16 -1 3 3 -24 7 -23 24 2
24 11 0 20 4 20 9 0 16 -25 30 -39 22z m24 -11 c3 -5 -1 -10 -10 -10 -9 0 -13
5 -10 10 3 6 8 10 10 10 2 0 7 -4 10 -10z"/>
<path d="M5647 5460 c6 -8 13 -26 16 -40 l4 -25 2 26 c0 15 -7 33 -16 40 -16
12 -17 12 -6 -1z"/>
<path d="M3066 5440 c3 -14 10 -29 15 -34 14 -16 10 6 -7 34 l-15 25 7 -25z"/>
<path d="M3090 5444 c0 -8 5 -12 10 -9 6 3 10 10 10 16 0 5 -4 9 -10 9 -5 0
-10 -7 -10 -16z"/>
<path d="M3131 5444 c0 -11 3 -14 6 -6 3 7 2 16 -1 19 -3 4 -6 -2 -5 -13z"/>
<path d="M3154 5445 c-9 -23 4 -47 22 -43 24 4 41 35 28 48 -8 8 -10 4 -10
-12 1 -14 -5 -23 -14 -23 -9 0 -15 9 -14 23 1 26 -4 28 -12 7z"/>
<path d="M3221 5428 c2 -28 2 -29 6 -8 3 14 10 28 17 32 7 5 5 8 -6 8 -14 0
-18 -8 -17 -32z"/>
<path d="M3296 5444 c-7 -18 10 -44 27 -44 6 0 2 6 -8 14 -16 12 -17 16 -6 30
7 9 9 16 3 16 -5 0 -13 -7 -16 -16z"/>
<path d="M3523 5436 c1 -17 9 -31 17 -33 10 -3 11 -2 4 4 -7 4 -14 19 -17 33
-4 22 -5 21 -4 -4z"/>
<path d="M3562 5430 c0 -19 2 -27 5 -17 2 9 2 25 0 35 -3 9 -5 1 -5 -18z"/>
<path d="M3590 5430 c0 -16 2 -30 4 -30 2 0 6 14 8 30 3 17 1 30 -4 30 -4 0
-8 -13 -8 -30z"/>
<path d="M3670 5451 c0 -5 -9 -11 -21 -14 -22 -6 -22 -29 -1 -33 7 -1 8 0 2 3
-15 7 -12 23 4 23 8 0 17 -8 19 -17 3 -10 5 -3 6 15 0 17 -1 32 -4 32 -3 0 -5
-4 -5 -9z"/>
<path d="M3812 5433 c2 -14 10 -28 18 -30 12 -4 13 -3 1 5 -8 6 -12 19 -8 31
3 12 1 21 -5 21 -5 0 -8 -12 -6 -27z"/>
<path d="M3991 5433 c5 -14 8 -32 5 -40 -3 -7 -3 -13 -1 -13 7 0 35 58 34 72
0 7 -5 2 -11 -12 l-10 -25 -9 23 c-4 12 -11 22 -13 22 -3 0 -1 -12 5 -27z"/>
<path d="M4110 5430 c0 -16 2 -30 4 -30 2 0 6 14 8 30 3 17 1 30 -4 30 -4 0
-8 -13 -8 -30z"/>
<path d="M4180 5450 c0 -6 7 -13 15 -16 8 -4 15 -11 15 -16 0 -6 -8 -7 -17 -3
-14 5 -15 3 -6 -6 6 -6 19 -9 27 -6 17 7 22 27 7 27 -5 0 -17 7 -25 16 -9 8
-16 10 -16 4z"/>
<path d="M4320 5451 c0 -5 -9 -11 -21 -14 -22 -6 -22 -29 -1 -33 7 -1 8 0 2 3
-15 7 -12 23 4 23 8 0 17 -8 19 -17 3 -10 5 -3 6 15 0 17 -1 32 -4 32 -3 0 -5
-4 -5 -9z"/>
<path d="M4420 5430 c0 -16 2 -30 4 -30 2 0 6 14 8 30 3 17 1 30 -4 30 -4 0
-8 -13 -8 -30z"/>
<path d="M4500 5451 c0 -5 -9 -11 -21 -14 -22 -6 -22 -29 -1 -33 7 -1 8 0 2 3
-15 7 -12 23 4 23 8 0 17 -8 19 -17 3 -10 5 -3 6 15 0 17 -1 32 -4 32 -3 0 -5
-4 -5 -9z"/>
<path d="M4530 5430 c0 -16 2 -30 4 -30 2 0 6 14 8 30 3 17 1 30 -4 30 -4 0
-8 -13 -8 -30z"/>
<path d="M4568 5430 c2 -16 6 -30 8 -30 2 0 4 14 4 30 0 17 -4 30 -8 30 -5 0
-7 -13 -4 -30z"/>
<path d="M4824 5445 c-7 -18 12 -45 32 -45 16 0 29 39 17 51 -6 6 -9 1 -9 -13
1 -14 -5 -23 -14 -23 -9 0 -15 9 -14 23 1 26 -4 28 -12 7z"/>
<path d="M4890 5430 c0 -16 2 -30 4 -30 2 0 6 14 8 30 3 17 1 30 -4 30 -4 0
-8 -13 -8 -30z"/>
<path d="M4928 5430 c2 -16 5 -30 7 -30 2 0 5 14 7 30 3 19 0 30 -7 30 -7 0
-10 -11 -7 -30z"/>
<path d="M4968 5430 c2 -16 6 -30 8 -30 2 0 4 14 4 30 0 17 -4 30 -8 30 -5 0
-7 -13 -4 -30z"/>
<path d="M5002 5430 c0 -19 2 -27 5 -17 2 9 2 25 0 35 -3 9 -5 1 -5 -18z"/>
<path d="M5103 5436 c1 -17 9 -31 17 -33 10 -3 11 -2 4 4 -7 4 -14 19 -17 33
-4 22 -5 21 -4 -4z"/>
<path d="M5142 5430 c0 -19 2 -27 5 -17 2 9 2 25 0 35 -3 9 -5 1 -5 -18z"/>
<path d="M5170 5430 c0 -16 2 -30 4 -30 2 0 6 14 8 30 3 17 1 30 -4 30 -4 0
-8 -13 -8 -30z"/>
<path d="M5208 5430 c2 -16 6 -30 8 -30 2 0 4 14 4 30 0 17 -4 30 -8 30 -5 0
-7 -13 -4 -30z"/>
<path d="M5242 5430 c0 -19 2 -27 5 -17 2 9 2 25 0 35 -3 9 -5 1 -5 -18z"/>
<path d="M5343 5440 c-3 -11 -10 -17 -16 -13 -7 4 -8 0 -3 -12 4 -11 1 -22 -6
-27 -10 -8 -10 -9 1 -6 13 4 46 78 35 78 -3 0 -8 -9 -11 -20z"/>
<path d="M5550 5451 c0 -5 -9 -11 -21 -14 -22 -6 -22 -29 -1 -33 7 -1 8 0 2 3
-15 7 -12 23 4 23 8 0 17 -8 19 -17 3 -10 5 -3 6 15 0 17 -1 32 -4 32 -3 0 -5
-4 -5 -9z"/>
<path d="M5580 5430 c0 -16 2 -30 4 -30 2 0 6 14 8 30 3 17 1 30 -4 30 -4 0
-8 -13 -8 -30z"/>
<path d="M5618 5430 c2 -16 6 -30 8 -30 2 0 4 14 4 30 0 17 -4 30 -8 30 -5 0
-7 -13 -4 -30z"/>
<path d="M3110 5421 c0 -5 5 -13 10 -16 6 -3 10 -2 10 4 0 5 -4 13 -10 16 -5
3 -10 2 -10 -4z"/>
<path d="M3710 5410 c0 -5 5 -10 11 -10 5 0 7 5 4 10 -3 6 -8 10 -11 10 -2 0
-4 -4 -4 -10z"/>
<path d="M3143 5275 c0 -27 2 -38 4 -22 2 15 2 37 0 50 -2 12 -4 0 -4 -28z"/>
<path d="M3500 5290 c0 -5 5 -10 10 -10 6 0 10 5 10 10 0 6 -4 10 -10 10 -5 0
-10 -4 -10 -10z"/>
<path d="M3070 5260 c0 -27 3 -31 23 -28 16 2 22 10 22 28 0 18 -6 26 -22 28
-20 3 -23 -1 -23 -28z m40 0 c0 -11 -7 -20 -15 -20 -8 0 -15 9 -15 20 0 11 7
20 15 20 8 0 15 -9 15 -20z"/>
<path d="M3165 5280 c-12 -20 6 -51 28 -48 31 4 31 52 0 56 -11 2 -24 -2 -28
-8z m45 -20 c0 -21 -24 -28 -35 -10 -8 14 3 30 21 30 8 0 14 -9 14 -20z"/>
<path d="M3235 5280 c-3 -6 -3 -20 0 -31 5 -15 13 -19 27 -16 14 4 18 2 14 -9
-3 -9 -1 -12 4 -9 6 3 10 22 10 41 0 29 -3 34 -24 34 -14 0 -28 -5 -31 -10z
m45 -14 c0 -8 -5 -18 -11 -22 -14 -8 -33 11 -25 25 10 16 36 13 36 -3z"/>
<path d="M3342 5260 c0 -19 2 -27 5 -17 2 9 2 25 0 35 -3 9 -5 1 -5 -18z"/>
<path d="M3371 5258 c2 -31 2 -31 6 -5 2 15 10 27 18 27 8 0 16 -12 18 -27 4
-26 4 -26 6 5 1 28 -2 32 -24 32 -22 0 -25 -4 -24 -32z"/>
<path d="M3440 5275 c0 -8 7 -15 15 -15 21 0 19 -18 -2 -23 -14 -4 -12 -5 5
-6 26 -1 31 26 5 36 -15 6 -15 7 3 14 17 7 17 8 -3 8 -14 1 -23 -5 -23 -14z"/>
<path d="M3559 5283 c19 -4 21 -7 10 -14 -10 -6 -10 -9 -1 -9 6 0 12 -4 12
-10 0 -14 -27 -12 -33 3 -3 7 -6 5 -6 -5 -1 -13 7 -18 24 -18 21 0 25 5 25 30
0 26 -3 30 -27 29 -26 -2 -27 -2 -4 -6z"/>
<path d="M3612 5263 c2 -14 9 -28 16 -29 7 -1 8 0 2 3 -16 8 -12 43 6 43 13 0
15 -8 12 -35 -2 -19 0 -35 4 -35 4 0 8 18 8 40 0 36 -2 40 -26 40 -22 0 -25
-4 -22 -27z"/>
<path d="M3681 5258 c2 -28 2 -29 6 -8 3 14 10 28 17 32 7 5 5 8 -6 8 -14 0
-18 -8 -17 -32z"/>
<path d="M3745 5281 c19 -8 19 -8 -3 -15 -28 -9 -24 -30 6 -34 19 -3 22 1 22
27 0 26 -4 31 -22 30 -22 0 -22 -1 -3 -8z m15 -31 c0 -5 -7 -10 -16 -10 -8 0
-12 5 -9 10 3 6 10 10 16 10 5 0 9 -4 9 -10z"/>
<path d="M3791 5258 c2 -31 2 -31 6 -5 2 15 10 27 18 27 8 0 16 -12 18 -27 l4
-28 2 28 c1 35 21 36 21 0 0 -20 3 -24 11 -16 6 6 8 20 4 32 -5 17 -15 21 -46
21 -38 0 -39 -1 -38 -32z"/>
<path d="M3924 5275 c-9 -23 3 -45 26 -45 11 0 20 4 20 9 0 5 -8 8 -17 7 -27
-2 -28 32 -1 37 l23 4 -23 2 c-12 0 -25 -6 -28 -14z"/>
<path d="M3997 5283 c-13 -12 -7 -44 9 -50 20 -7 45 22 37 43 -5 14 -35 19
-46 7z m36 -9 c9 -10 -4 -34 -19 -34 -8 0 -14 9 -14 20 0 19 19 27 33 14z"/>
<path d="M4061 5258 c2 -30 2 -31 6 -5 2 15 10 27 18 27 8 0 16 -12 18 -27 l4
-28 2 28 c1 34 22 32 33 -4 6 -22 7 -21 5 6 -2 28 -5 30 -44 33 -43 3 -43 3
-42 -30z"/>
<path d="M3504 5254 c3 -9 6 -18 6 -20 0 -2 4 -4 9 -4 5 0 7 9 4 20 -3 11 -10
20 -15 20 -6 0 -7 -7 -4 -16z"/>
<path d="M4577 3963 c-11 -11 -8 -23 6 -23 18 0 47 -32 47 -52 0 -9 -7 -21
-15 -28 -9 -8 -15 -8 -15 -2 0 6 -12 5 -29 -4 -23 -11 -32 -25 -41 -62 -18
-79 -17 -113 2 -123 12 -6 18 -6 18 1 0 5 -5 10 -12 10 -6 0 -9 3 -6 6 4 3 16
1 27 -6 15 -8 27 -8 41 0 22 12 27 1 8 -19 -11 -11 -10 -13 5 -7 50 17 67 17
91 -1 23 -16 38 -42 17 -29 -5 3 -11 -1 -15 -9 -11 -29 22 -15 34 15 14 35 14
45 -3 45 -30 2 -68 18 -64 29 2 6 17 10 34 9 29 -1 30 0 19 23 -6 13 -16 24
-22 24 -6 0 -14 18 -18 40 -3 22 -11 40 -16 40 -6 0 -10 5 -10 11 0 5 5 7 12
3 6 -4 38 -9 70 -10 56 -3 59 -2 56 19 -4 29 -19 39 -36 25 -10 -9 -16 -8 -22
2 -4 7 -15 10 -24 7 -8 -3 -18 -2 -21 4 -4 5 -9 7 -13 5 -4 -2 -21 7 -37 20
-17 13 -24 24 -17 24 7 0 10 5 7 10 -7 11 -48 14 -58 3z"/>
<path d="M4800 3680 c-6 -11 -15 -18 -21 -15 -17 11 -22 -26 -6 -43 15 -14 18
-14 35 1 10 9 24 17 30 17 12 0 27 38 18 47 -3 4 -6 0 -6 -8 -1 -10 -3 -9 -11
4 -13 23 -26 22 -39 -3z m40 -21 c0 -5 -4 -9 -10 -9 -5 0 -10 7 -10 16 0 8 5
12 10 9 6 -3 10 -10 10 -16z"/>
<path d="M4745 3600 c-7 -11 12 -50 24 -50 14 0 20 37 8 49 -14 14 -24 14 -32
1z"/>
<path d="M4710 3560 c13 -8 13 -10 -1 -10 -17 0 -32 -23 -22 -34 3 -3 16 2 29
10 25 17 22 44 -5 44 -14 0 -14 -2 -1 -10z"/>
<path d="M4790 3559 c0 -5 5 -7 10 -4 6 3 10 8 10 11 0 2 -4 4 -10 4 -5 0 -10
-5 -10 -11z"/>
<path d="M4450 3421 c-8 -6 -18 -7 -24 -4 -5 4 -6 1 -1 -7 6 -10 4 -12 -9 -7
-10 4 -15 3 -11 -3 3 -6 23 -10 43 -9 34 1 35 2 12 10 -23 8 -22 8 7 6 26 -3
30 -1 22 10 -13 15 -19 16 -39 4z"/>
<path d="M4526 3412 c-3 -5 1 -9 9 -9 8 0 12 4 9 9 -3 4 -7 8 -9 8 -2 0 -6 -4
-9 -8z"/>
<path d="M4195 3389 c-22 -5 -14 -7 28 -7 31 1 57 3 57 7 0 8 -48 8 -85 0z"/>
<path d="M4100 3380 c-23 -7 -23 -8 -3 -9 12 -1 25 4 28 9 3 6 5 10 3 9 -2 -1
-14 -5 -28 -9z"/>
<path d="M4303 3383 c9 -2 25 -2 35 0 9 3 1 5 -18 5 -19 0 -27 -2 -17 -5z"/>
<path d="M2980 3298 c0 -4 11 -8 25 -8 23 0 25 -4 27 -47 l1 -48 4 43 c4 37 7
42 29 42 24 0 35 19 12 21 -68 5 -98 4 -98 -3z"/>
<path d="M4030 2775 l0 -535 535 0 535 0 0 535 0 535 -535 0 -535 0 0 -535z"/>
<path d="M3110 3287 c0 -11 25 -19 98 -32 53 -9 105 -19 115 -21 10 -3 17 0
17 8 0 10 -29 20 -92 32 -51 9 -103 20 -115 23 -16 4 -23 1 -23 -10z"/>
<path d="M3560 3201 c0 -5 19 -11 43 -15 23 -4 57 -9 75 -12 57 -11 34 13 -25
25 -68 13 -93 14 -93 2z"/>
<path d="M3720 3181 c0 -5 7 -11 15 -15 8 -3 15 -1 15 3 0 5 -7 11 -15 15 -8
3 -15 1 -15 -3z"/>
<path d="M3044 3095 c0 -49 1 -71 3 -48 2 23 2 64 0 90 -2 26 -3 8 -3 -42z"/>
<path d="M3780 3172 c0 -12 19 -26 26 -19 2 2 -2 10 -11 17 -9 8 -15 8 -15 2z"/>
<path d="M3830 3160 c-8 -5 -12 -12 -9 -15 4 -3 12 1 19 10 14 17 11 19 -10 5z"/>
<path d="M3930 3140 c0 -6 6 -10 14 -10 7 0 29 -3 47 -6 23 -4 29 -2 19 4 -23
14 -80 23 -80 12z"/>
<path d="M5660 3093 c0 -27 -4 -96 -10 -154 -5 -57 -11 -138 -14 -179 -2 -41
-9 -86 -14 -100 -5 -14 -13 -56 -17 -95 -3 -38 -12 -97 -19 -130 l-13 -60 -7
50 c-5 28 -14 82 -22 120 -8 39 -17 121 -20 184 -2 63 -9 120 -15 127 -6 7 -9
30 -7 51 3 33 0 38 -19 41 -19 3 -23 10 -23 40 0 20 4 43 9 51 11 18 3 41 -14
41 -13 0 -15 -23 -3 -35 3 -3 2 -25 -3 -48 -4 -23 -8 -100 -9 -172 -1 -71 -3
-146 -5 -165 -2 -19 1 -42 6 -50 4 -8 9 -11 9 -6 0 5 7 3 15 -4 8 -6 18 -9 23
-6 14 8 23 -31 23 -97 1 -32 5 -55 10 -51 5 3 9 0 9 -5 0 -6 -4 -11 -9 -11 -6
0 -18 -25 -27 -55 -17 -52 -34 -73 -34 -41 0 37 -54 23 -70 -17 l-9 -22 0 23
c-1 39 -21 23 -21 -17 0 -79 -25 -52 -45 47 -8 40 -16 34 -40 -30 -10 -27 -21
-48 -26 -48 -4 0 -11 20 -15 45 -3 25 -10 47 -14 50 -10 6 -29 -38 -36 -85
l-7 -40 382 0 381 0 -1 43 c-1 23 -5 53 -9 67 -6 19 -8 11 -9 -32 -1 -32 -4
-58 -9 -58 -19 0 -47 110 -52 205 -4 89 -7 100 -23 99 -17 -2 -17 -1 -1 17 20
22 40 25 47 7 3 -7 6 61 6 153 1 91 -3 169 -7 175 -5 5 -15 29 -22 54 l-13 45
-9 -35 c-6 -19 -14 -43 -19 -52 -5 -10 -9 -87 -9 -171 0 -84 -4 -157 -9 -163
-4 -5 -13 -56 -20 -114 -7 -58 -14 -127 -17 -153 -4 -27 -8 -46 -11 -43 -8 7
-43 153 -46 187 0 9 -6 16 -13 16 -9 0 -9 -5 -1 -20 9 -15 9 -21 0 -24 -7 -3
-13 -9 -13 -14 0 -6 4 -7 10 -4 6 4 7 -1 3 -11 -6 -15 -7 -15 -21 2 -13 18
-14 18 -7 -3 4 -15 2 -23 -6 -23 -7 0 -9 3 -6 7 4 3 0 18 -10 32 -13 20 -13
23 -1 14 8 -7 17 -11 20 -8 2 3 3 50 0 105 -4 89 -2 100 12 100 11 0 15 -5 10
-12 -5 -10 -3 -9 7 0 12 11 11 15 -3 23 -18 10 -26 69 -10 69 5 0 17 7 28 15
18 15 16 16 -26 11 l-45 -5 38 11 c24 8 37 17 37 29 0 15 -22 215 -35 313 -8
57 -15 57 -15 -1z m196 -180 c-10 -10 -19 5 -10 18 6 11 8 11 12 0 2 -7 1 -15
-2 -18z m-373 -66 c4 3 7 2 7 -3 0 -11 -20 -34 -29 -34 -4 0 -7 11 -7 25 -2
19 1 23 10 15 7 -5 16 -7 19 -3z m-3 -57 c0 -5 -7 -10 -15 -10 -8 0 -15 5 -15
10 0 6 7 10 15 10 8 0 15 -4 15 -10z m5 -49 c3 -5 -3 -17 -12 -27 -16 -16 -16
-16 6 -9 20 6 23 4 18 -9 -4 -9 -10 -23 -14 -33 -5 -12 -3 -14 8 -8 8 4 7 0
-3 -11 -14 -14 -20 -16 -30 -6 -10 10 -10 15 2 22 8 5 11 10 5 10 -5 0 -11 18
-11 40 -1 27 3 40 12 40 7 0 15 -4 19 -9z m180 -382 c11 -16 1 -19 -13 -3 -7
8 -8 14 -3 14 5 0 13 -5 16 -11z m152 -101 c-3 -8 -6 -5 -6 6 -1 11 2 17 5 13
3 -3 4 -12 1 -19z"/>
<path d="M3070 2980 c0 -5 5 -10 11 -10 5 0 7 5 4 10 -3 6 -8 10 -11 10 -2 0
-4 -4 -4 -10z"/>
<path d="M3120 2974 c60 -8 130 -8 130 -1 0 4 -35 6 -77 6 -43 -1 -67 -3 -53
-5z"/>
<path d="M3280 2970 c0 -5 5 -10 10 -10 6 0 10 5 10 10 0 6 -4 10 -10 10 -5 0
-10 -4 -10 -10z"/>
<path d="M3613 2953 c31 -2 83 -2 115 0 31 2 5 3 -58 3 -63 0 -89 -1 -57 -3z"/>
<path d="M5276 2875 c-5 -49 -12 -94 -16 -100 -4 -5 -11 -35 -14 -65 -4 -30
-9 -73 -12 -95 -5 -36 -4 -38 8 -21 12 15 30 20 91 25 4 1 7 22 7 47 0 25 -4
43 -9 40 -5 -3 -12 24 -16 61 -4 37 -13 97 -19 133 l-13 65 -7 -90z"/>
<path d="M6017 2895 c-13 -124 -17 -149 -30 -157 -9 -6 -9 -8 1 -8 7 0 10 -5
6 -11 -10 -17 -15 -119 -5 -119 5 0 11 7 15 15 3 8 14 15 25 15 15 0 18 5 13
23 -5 20 -4 21 11 8 23 -18 21 -42 -3 -48 -22 -6 -26 -18 -9 -28 6 -4 8 -13 5
-21 -3 -7 3 -18 12 -23 9 -6 12 -11 5 -11 -13 0 -5 -41 11 -52 7 -5 6 -8 -3
-8 -7 0 -11 -6 -7 -15 7 -20 -3 -19 -26 2 -17 15 -18 15 -19 -3 -1 -10 0 -23
1 -29 2 -5 2 -22 1 -36 0 -14 6 -34 14 -45 15 -18 16 -17 10 16 -4 19 -9 45
-12 58 -3 12 0 22 6 22 6 0 11 -7 11 -15 0 -8 4 -15 9 -15 17 0 20 -29 7 -72
l-12 -43 -17 26 c-23 34 -37 84 -32 111 4 20 4 20 -13 2 -10 -10 -17 -28 -15
-39 3 -11 -1 -31 -7 -45 -10 -25 -10 -25 -7 5 2 17 1 44 -3 60 -5 19 -8 -7 -9
-72 l-1 -103 85 0 85 0 0 110 c0 61 -4 110 -9 110 -4 0 -6 12 -3 26 3 18 1 25
-6 20 -6 -4 -8 1 -5 13 2 10 -3 58 -12 106 -9 48 -14 93 -11 101 3 7 0 14 -5
16 -6 2 -12 19 -14 38 -3 19 -10 69 -18 110 l-13 75 -7 -70z m33 -136 c0 -5
-4 -9 -10 -9 -5 0 -10 7 -10 16 0 8 5 12 10 9 6 -3 10 -10 10 -16z m-23 -81
c-3 -8 -6 -5 -6 6 -1 11 2 17 5 13 3 -3 4 -12 1 -19z m80 -250 c-3 -8 -6 -5
-6 6 -1 11 2 17 5 13 3 -3 4 -12 1 -19z"/>
<path d="M2986 2865 c3 -49 8 -101 9 -115 2 -14 5 -50 6 -80 l2 -55 6 65 c3
36 3 84 -1 108 -4 24 -8 65 -9 92 -1 27 -6 55 -11 62 -5 8 -6 -23 -2 -77z"/>
<path d="M3780 2919 c0 -5 5 -7 10 -4 6 3 10 8 10 11 0 2 -4 4 -10 4 -5 0 -10
-5 -10 -11z"/>
<path d="M3078 2883 c5 -21 7 -23 10 -9 2 10 0 22 -6 28 -6 6 -7 0 -4 -19z"/>
<path d="M3022 2860 c0 -14 2 -19 5 -12 2 6 2 18 0 25 -3 6 -5 1 -5 -13z"/>
<path d="M3083 2815 c0 -22 2 -30 4 -17 2 12 2 30 0 40 -3 9 -5 -1 -4 -23z"/>
<path d="M3792 2845 c4 -4 2 -15 -4 -24 -7 -9 -8 -13 -4 -9 5 4 16 2 25 -5 14
-10 14 -10 4 4 -7 9 -10 18 -7 21 3 3 -1 9 -8 14 -7 4 -10 4 -6 -1z"/>
<path d="M3027 2793 c-3 -5 -1 -17 4 -28 6 -17 7 -16 6 8 -1 28 -3 32 -10 20z"/>
<path d="M3679 2763 c-12 -16 -12 -17 2 -6 9 7 20 9 24 5 5 -4 5 -1 1 6 -9 16
-11 15 -27 -5z"/>
<path d="M3031 2724 c0 -11 3 -14 6 -6 3 7 2 16 -1 19 -3 4 -6 -2 -5 -13z"/>
<path d="M3028 2653 c5 -48 8 -60 16 -52 7 7 -6 99 -14 99 -4 0 -5 -21 -2 -47z"/>
<path d="M3093 2640 c0 -36 2 -50 4 -32 2 17 2 47 0 65 -2 17 -4 3 -4 -33z"/>
<path d="M3659 2663 c-13 -16 -12 -17 4 -4 9 7 17 15 17 17 0 8 -8 3 -21 -13z"/>
<path d="M3252 2645 c0 -16 2 -22 5 -12 2 9 2 23 0 30 -3 6 -5 -1 -5 -18z"/>
<path d="M3041 2574 c0 -11 3 -14 6 -6 3 7 2 16 -1 19 -3 4 -6 -2 -5 -13z"/>
<path d="M5990 2475 c-7 -9 -10 -18 -6 -22 3 -3 6 -1 6 6 0 7 5 9 10 6 6 -3
10 1 10 9 0 20 -4 20 -20 1z"/>
<path d="M6050 2379 c0 -11 4 -18 10 -14 5 3 7 12 3 20 -7 21 -13 19 -13 -6z"/>
<path d="M5632 2038 c-15 -15 -15 -31 0 -22 7 5 9 2 6 -8 -8 -20 29 -19 41 1
5 7 14 10 20 7 6 -4 11 -3 11 3 0 23 -24 23 -43 0 -20 -24 -20 -24 -14 -2 6
27 -5 37 -21 21z"/>
<path d="M5717 2002 c-4 -6 -15 -8 -23 -5 -14 5 -14 3 -3 -15 7 -11 24 -24 37
-27 14 -3 22 -8 20 -11 -3 -2 -16 0 -30 5 -14 5 -31 5 -38 1 -20 -13 -33 -1
-19 17 11 12 8 14 -22 11 -26 -3 -35 -9 -37 -26 -3 -21 -1 -22 102 -22 89 0
106 3 106 15 0 12 -4 13 -19 6 -14 -8 -23 -5 -38 12 -11 12 -22 29 -25 37 -3
10 -6 11 -11 2z"/>
<path d="M3845 1970 c3 -4 -23 -12 -58 -17 -45 -8 -64 -7 -69 1 -4 6 -17 12
-28 12 -11 1 -18 -1 -15 -4 2 -3 0 -11 -6 -19 -10 -11 11 -13 117 -12 71 0
123 3 117 6 -7 2 -13 11 -13 18 0 7 -11 15 -25 17 -13 3 -22 2 -20 -2z"/>
<path d="M3293 1948 c-45 -12 -41 -18 12 -18 25 0 45 4 45 9 0 15 -23 18 -57
9z"/>
<path d="M3429 1944 c-9 -11 -5 -14 25 -14 41 0 49 15 11 22 -14 3 -30 -1 -36
-8z"/>
<path d="M3365 1940 c-4 -6 5 -10 20 -10 15 0 24 4 20 10 -3 6 -12 10 -20 10
-8 0 -17 -4 -20 -10z"/>
<path d="M3545 1940 c-30 -8 -30 -8 8 -9 23 -1 36 3 32 9 -3 6 -7 9 -8 9 -1
-1 -15 -5 -32 -9z"/>
<path d="M3605 1940 c-4 -6 5 -10 20 -10 15 0 24 4 20 10 -3 6 -12 10 -20 10
-8 0 -17 -4 -20 -10z"/>
<path d="M3193 1933 c9 -2 23 -2 30 0 6 3 -1 5 -18 5 -16 0 -22 -2 -12 -5z"/>
<path d="M3958 1933 c7 -3 16 -2 19 1 4 3 -2 6 -13 5 -11 0 -14 -3 -6 -6z"/>
<path d="M3856 1809 c-36 -28 -36 -86 -1 -119 20 -18 32 -22 64 -17 31 4 44 1
57 -14 12 -13 21 -16 28 -9 6 6 3 17 -12 33 -15 16 -18 27 -12 37 17 26 11 51
-19 81 -35 34 -68 37 -105 8z m82 -15 c52 -36 4 -122 -54 -96 -13 7 -27 19
-30 27 -10 25 5 65 29 75 30 12 30 12 55 -6z"/>
<path d="M5785 1805 c-24 -23 -30 -44 -26 -90 3 -33 57 -75 94 -74 18 1 24 3
14 6 -10 3 -16 11 -13 18 3 9 -5 16 -24 20 -40 9 -48 25 -22 43 12 8 22 23 22
33 0 10 5 21 10 24 6 3 10 -1 10 -9 0 -25 16 -27 36 -4 19 20 19 21 -4 14 -20
-7 -22 -5 -18 18 4 23 1 26 -25 26 -18 0 -39 -9 -54 -25z"/>
<path d="M5171 1817 c2 -1 13 -9 24 -17 19 -14 19 -14 6 3 -7 9 -18 17 -24 17
-6 0 -8 -1 -6 -3z"/>
<path d="M3221 1766 c-37 -38 -42 -48 -39 -82 3 -37 5 -39 38 -39 33 0 35 2
36 35 l2 35 -5 -32 c-4 -29 -8 -33 -34 -33 -27 0 -29 3 -29 37 0 30 8 45 42
80 23 24 40 43 37 43 -3 0 -24 -20 -48 -44z"/>
<path d="M3318 1770 c34 -37 42 -53 42 -83 0 -34 -2 -37 -29 -37 -25 0 -30 5
-34 28 -5 26 -5 26 -3 -3 1 -27 4 -30 36 -30 34 0 35 2 38 40 3 36 -1 44 -45
85 l-48 45 43 -45z"/>
<path d="M5921 1760 c1 -42 1 -43 9 -16 6 17 5 36 0 45 -7 11 -9 3 -9 -29z"/>
<path d="M5120 1737 c0 -2 15 -16 33 -33 l32 -29 -29 33 c-28 30 -36 37 -36
29z"/>
<path d="M5269 1713 c-13 -16 -12 -17 4 -4 16 13 21 21 13 21 -2 0 -10 -8 -17
-17z"/>
<path d="M5216 1675 c-11 -8 -15 -15 -9 -15 6 0 16 7 23 15 16 19 11 19 -14 0z"/>
<path d="M3526 3967 c3 -10 9 -15 12 -12 3 3 0 11 -7 18 -10 9 -11 8 -5 -6z"/>
<path d="M3345 3560 c3 -5 8 -10 11 -10 2 0 4 5 4 10 0 6 -5 10 -11 10 -5 0
-7 -4 -4 -10z"/>
<path d="M3233 3523 c-7 -3 -13 -9 -13 -14 0 -6 4 -8 8 -5 5 3 15 -6 22 -19
15 -27 25 -31 36 -14 8 14 -37 58 -53 52z"/>
<path d="M3310 3520 c0 -5 5 -10 10 -10 6 0 10 5 10 10 0 6 -4 10 -10 10 -5 0
-10 -4 -10 -10z"/>
<path d="M5420 4081 c0 -11 5 -23 10 -26 6 -3 10 -2 10 4 0 5 3 16 6 25 4 11
1 16 -10 16 -9 0 -16 -8 -16 -19z"/>
<path d="M5796 4031 c-10 -15 19 -42 38 -35 14 5 15 9 4 15 -10 7 -10 9 2 9
13 0 13 1 0 10 -19 12 -37 13 -44 1z"/>
<path d="M5629 3978 c0 -2 -2 -11 -4 -21 -3 -15 -1 -16 11 -6 7 6 11 15 8 20
-5 9 -13 12 -15 7z"/>
<path d="M3660 3676 c0 -8 5 -18 10 -21 6 -3 10 3 10 14 0 12 -4 21 -10 21 -5
0 -10 -6 -10 -14z"/>
<path d="M2715 6570 c-3 -5 1 -10 9 -10 9 0 16 5 16 10 0 6 -4 10 -9 10 -6 0
-13 -4 -16 -10z"/>
<path d="M2710 6053 c0 -15 19 -37 26 -31 3 4 -1 14 -10 23 -9 9 -16 13 -16 8z"/>
<path d="M2717 5876 c-4 -10 -1 -13 9 -9 15 6 19 23 5 23 -5 0 -11 -7 -14 -14z"/>
<path d="M2716 5347 c3 -10 9 -15 12 -12 3 3 0 11 -7 18 -10 9 -11 8 -5 -6z"/>
<path d="M4530 1393 c-97 -15 -186 -76 -223 -156 -28 -58 -8 -65 24 -9 75 132
226 177 360 108 52 -28 67 -20 22 12 -51 34 -126 53 -183 45z"/>
<path d="M4670 876 c-32 -14 -66 -20 -117 -21 -71 0 -90 -6 -57 -19 49 -19
169 0 213 34 35 26 12 30 -39 6z"/>
<path d="M3085 636 l-20 -15 20 -8 c11 -4 659 -8 1440 -8 l1420 0 35 23 c19
13 26 21 15 18 -80 -21 -300 -25 -1440 -25 -1127 0 -1318 4 -1420 24 -19 4
-37 1 -50 -9z"/>
</g>
</svg>
